<?xml version="1.0" encoding="UTF-8"?><svg id="_レイヤー_1" xmlns="http://www.w3.org/2000/svg" viewBox="0 0 760 760"><path d="M680.62,421.92l79.38-41.91-79.38-41.91-43.21-22.82v-82.9l122.59-64.73-122.59-64.73V0h-35.69V84.07L442.5,0,162.21,147.99,0,63.86c27.72,25.19,45.27,62.33,45.27,103.78S27.72,246.24,0,271.43l162.21-84.13,121.53,64.17,38.22-20.18-120.53-63.64L442.5,40.36l159.23,84.07v86.42l-81.03,42.79-78.19-41.29-78.19,41.29-1.18,.62-37.04,19.56-42.34,22.36-79.38,41.91-42.16,22.26L0,276.22c27.71,25.19,45.27,62.33,45.27,103.78S27.72,458.59,0,483.79l162.21-84.13,42.16,22.26,79.38,41.91,42.33,22.35,37.04,19.56,1.17,.62,78.2,41.29,78.2-41.29,81.02,42.78v86.42l-159.23,84.08-241.07-127.29,120.53-63.64-38.22-20.18-121.53,64.17L0,488.57c27.71,25.19,45.27,62.33,45.27,103.78S27.72,670.94,0,696.13l162.21-84.13,280.29,148,159.23-84.07v84.07h35.69v-102.92l122.59-64.73-122.59-64.73v-82.89l43.21-22.82Zm2.94-41.91l-46.15,24.37v-48.74l46.15,24.37Zm-46.15-236.73l46.15,24.37-46.15,24.37v-48.74Zm-35.69,107.94v45.21l-.48-.25-42.34-22.36,42.81-22.61Zm-159.23,1.5l39.98,21.11-39.98,21.11-39.98-21.11,39.98-21.11Zm0,254.57l-39.98-21.11,39.98-21.11,39.98,21.11-39.98,21.11Zm0-82.58l-78.2,41.29-42.33-22.35-60.27-31.82-60.27-31.82,60.27-31.82,60.27-31.82,42.34-22.36,78.19,41.29,78.19-41.29,42.34,22.36,38.69,20.43v86.42l-38.69,20.43-42.33,22.35-78.2-41.29Zm241.06,167.65l-46.15,24.37v-48.74l46.15,24.37Zm-81.84-83.57l-42.81-22.6,42.33-22.35,.48-.25v45.2Z"/></svg>